<?xml version="1.0" encoding="utf-8"?>
<!-- Generator: Adobe Illustrator 25.2.3, SVG Export Plug-In . SVG Version: 6.00 Build 0)  -->
<svg version="1.1" id="Layer_1" xmlns="http://www.w3.org/2000/svg" xmlns:xlink="http://www.w3.org/1999/xlink" x="0px" y="0px"
	 viewBox="0 0 89.6 89.6" style="enable-background:new 0 0 89.6 89.6;" xml:space="preserve">
<style type="text/css">
	.st0{fill:#007BBF;}
</style>
<path class="st0" d="M81.2,59.2v-8.3c0-0.2-0.2-0.4-0.4-0.4c0,0,0,0,0,0H69.5c0.8-2.3,1.3-4.7,1.5-7.1h4.6c0.2,1.3,1.5,2.3,2.9,2
	c1.3-0.2,2.3-1.5,2-2.9c-0.2-1.3-1.5-2.3-2.9-2c-1,0.2-1.8,1-2,2H71c0-0.3,0-0.6,0-1c0-2-0.2-4-0.7-6h5.6c0.2,0,0.4-0.2,0.4-0.4
	c0,0,0,0,0,0v-6.9c1.4-0.2,2.3-1.5,2-2.9c-0.2-1.4-1.5-2.3-2.9-2s-2.3,1.5-2,2.9c0.2,1,1,1.8,2,2v6.6h-5.3
	c-2.3-8.5-8.7-15.3-17.1-18.1V7.5h7.8c0.2,1.3,1.5,2.3,2.9,2c1.3-0.2,2.3-1.5,2-2.9c-0.2-1.3-1.5-2.3-2.9-2c-1,0.2-1.8,1-2,2h-8.2
	c-0.2,0-0.4,0.2-0.4,0.4c0,0,0,0,0,0v9.4c-2.3-0.7-4.7-1-7.1-1.1v-3.1c1.4-0.2,2.3-1.5,2-2.9s-1.5-2.3-2.9-2c-1.4,0.2-2.3,1.5-2,2.9
	c0.2,1,1,1.8,2,2v3.1c-2.3,0-4.7,0.4-6.9,1.1v-4.5c0-0.2-0.2-0.4-0.4-0.4l0,0h-7c-0.2-1.4-1.5-2.3-2.9-2c-1.4,0.2-2.3,1.5-2,2.9
	c0.2,1.4,1.5,2.3,2.9,2c1-0.2,1.8-1,2-2h6.6v4.4c-8.4,2.8-14.8,9.5-17.2,18H9.3v-7.8c1.4-0.2,2.3-1.5,2-2.9c-0.2-1.4-1.5-2.3-2.9-2
	c-1.4,0.2-2.3,1.5-2,2.9c0.2,1,1,1.8,2,2v8.3c0,0.2,0.2,0.4,0.4,0.4h10.5c-0.5,2-0.7,4-0.7,6c0,0.4,0,0.7,0,1h-4.5
	c-0.2-1.4-1.5-2.3-2.9-2s-2.3,1.5-2,2.9c0.2,1.4,1.5,2.3,2.9,2c1-0.2,1.8-1,2-2h4.6c0.2,2.3,0.7,4.7,1.4,6.9h-6.4
	c-0.2,0-0.4,0.2-0.4,0.4v7c-1.3,0.2-2.3,1.5-2,2.9c0.2,1.3,1.5,2.3,2.9,2c1.3-0.2,2.3-1.5,2-2.9c-0.2-1-1-1.8-2-2v-6.5h6.3
	c2.9,7.2,8.8,12.8,16.1,15.3v12.1h-7.9c-0.2-1.4-1.5-2.3-2.9-2c-1.4,0.2-2.3,1.5-2,2.9c0.2,1.4,1.5,2.3,2.9,2c1-0.2,1.8-1,2-2h8.3
	c0.2,0,0.4-0.2,0.4-0.4c0,0,0,0,0,0V66.8c2.3,0.7,4.7,1,7.1,1.1v5.9c-1.2,0.2-2,1.2-2,2.4c0,1.4,1.1,2.5,2.5,2.5s2.5-1.1,2.5-2.5
	c0-1.2-0.9-2.3-2.1-2.5v-5.9c2.3,0,4.6-0.4,6.9-1v7.4c0,0.1,0,0.2,0.1,0.2c0,0,0,0,0.1,0.1c0.1,0.1,0.2,0.1,0.3,0.1h7
	c0.2,1.4,1.5,2.3,2.9,2c1.4-0.2,2.3-1.5,2-2.9c-0.2-1.4-1.5-2.3-2.9-2c-1,0.2-1.8,1-2,2H53v-7.2c7.4-2.4,13.3-8,16.2-15.2h11.2v7.8
	c-1.4,0.2-2.3,1.5-2,2.9c0.2,1.4,1.5,2.3,2.9,2c1.4-0.2,2.3-1.5,2-2.9C83.1,60.2,82.2,59.4,81.2,59.2L81.2,59.2z M63.3,31
	c-0.1-0.2-0.1-0.4,0.1-0.6c0.2-0.1,0.4-0.1,0.6,0.1c0,0,0,0.1,0.1,0.1c2.4,4.1,3.4,8.9,2.8,13.6c-0.1,0.8-0.2,1.6-0.4,2.5l0,0v0.2
	v0.1c0,0,0,0.1,0,0.1l0,0.2c0,0.2-0.2,0.3-0.4,0.3h-0.1c-0.2-0.1-0.4-0.3-0.3-0.5c0,0,0,0,0,0v-0.2c0,0,0-0.1,0-0.1c0,0,0-0.1,0-0.1
	v-0.2l0,0c0.4-1.6,0.5-3.2,0.5-4.8C66.1,37.9,65.1,34.2,63.3,31z M30.3,41.6c0-5.6,3.2-10.6,8.2-13.1l0.1-0.1h0.1l0.1,0l0.1-0.1
	c0.2-0.1,0.5,0,0.5,0.2c0.1,0.2,0,0.5-0.2,0.5c0,0,0,0,0,0l-0.1,0.1h-0.1H39l-0.1,0.1l0,0c-4.7,2.3-7.7,7.1-7.7,12.3l0,0
	c0,0.2-0.2,0.4-0.4,0.4S30.3,41.8,30.3,41.6L30.3,41.6L30.3,41.6z M28.1,36.3c-0.1,0.2-0.2,0.3-0.4,0.3h-0.1
	c-0.2-0.1-0.3-0.3-0.3-0.5c1.7-5.4,5.8-9.6,11.1-11.6l0,0c0,0,0.1,0,0.2-0.1h0.1h0.1l0.2-0.1c0.2-0.1,0.5,0,0.5,0.2c0,0,0,0,0,0
	c0.1,0.2,0,0.5-0.3,0.5l-0.1,0h-0.1h-0.1l-0.2,0.1l0,0C33.6,27.1,29.7,31.2,28.1,36.3z M44.8,48c0.2,0,0.4,0.2,0.4,0.4c0,0,0,0,0,0
	c0,0.2-0.2,0.4-0.4,0.4c0,0,0,0,0,0l0,0c-4,0-7.2-3.2-7.2-7.1c0-1.7,0.6-3.3,1.6-4.6l0.1-0.1l0.1-0.1l0.1-0.1l0.1-0.1
	c0.2-0.2,0.4-0.2,0.6,0c0.2,0.2,0.2,0.4,0,0.6c0,0,0,0,0,0L40,37.4l-0.1,0.1v0.1c0,0-0.1,0.1-0.1,0.1c-0.9,1.1-1.4,2.5-1.4,4
	C38.5,45.2,41.3,48,44.8,48z M59.9,25.4l0.1,0.1l0.1,0.1l0.1,0.1l0.1,0.1c0.2,0.2,0.2,0.4,0,0.6c-0.1,0.1-0.2,0.1-0.3,0.1
	c-0.1,0-0.2,0-0.3-0.1l-0.1-0.1l-0.1-0.1l-0.1-0.1L59.4,26c-4-3.7-9.2-5.7-14.6-5.7l0,0c-0.2,0-0.4-0.2-0.4-0.4
	c0-0.2,0.2-0.4,0.4-0.4l0,0C50.4,19.4,55.8,21.5,59.9,25.4L59.9,25.4L59.9,25.4z M54.8,41.1c0-0.1,0-0.1,0-0.2
	c-0.4-5.2-4.7-9.3-10-9.3l0,0c-0.2,0-0.4-0.2-0.4-0.4c0-0.2,0.2-0.4,0.4-0.4l0,0c5.7,0,10.4,4.4,10.8,10l0,0c0,0.1,0,0.1,0,0.2
	c0,0,0,0.1,0,0.1c0,0,0,0.1,0,0.1c0,0.1,0,0.1,0,0.2c0,0.2-0.2,0.4-0.4,0.4c0,0,0,0,0,0l0,0c-0.2,0-0.4-0.2-0.4-0.4L54.8,41.1
	C54.8,41.2,54.8,41.1,54.8,41.1z M44.8,35.3L44.8,35.3c-0.2,0-0.4-0.2-0.4-0.4s0.2-0.4,0.4-0.4l0,0c4,0,7.2,3.2,7.2,7.2
	c0,0.8-0.1,1.6-0.4,2.4c-0.3,0.8-0.7,1.5-1.2,2.1l-0.1,0.1c0,0,0,0-0.1,0.1c0,0,0,0.1-0.1,0.1c0,0.1-0.1,0.1-0.1,0.1
	c-0.1,0.1-0.2,0.1-0.3,0.1c-0.1,0-0.2,0-0.3-0.1c-0.2-0.2-0.2-0.4,0-0.6c0,0,0,0,0,0l0.1-0.1l0.1-0.1c0,0,0,0,0-0.1l0.1-0.1
	c2.2-2.7,1.8-6.8-1-9C47.7,35.7,46.3,35.2,44.8,35.3L44.8,35.3z M53.5,46.6c0.1-0.2,0.4-0.3,0.6-0.1c0.2,0.1,0.3,0.4,0.1,0.6l0,0
	c-2.4,4.1-7.2,6.2-11.8,5.1c-0.8-0.2-1.6-0.5-2.3-0.8l-0.1-0.1l-0.1-0.1h-0.1l-0.1-0.1c-0.2-0.1-0.3-0.4-0.2-0.6c0,0,0,0,0,0
	c0.1-0.2,0.4-0.3,0.6-0.2l0.1,0.1h0.1h0.1l0.1,0.1l0,0c1.4,0.7,2.8,1,4.3,1C48.4,51.6,51.7,49.7,53.5,46.6z M44.8,28L44.8,28
	c-0.2,0-0.4-0.2-0.4-0.4c0-0.2,0.2-0.4,0.4-0.4l0,0c5.6,0,10.7,3.2,13.1,8.3l0.1,0.2v0.1c0,0,0,0,0,0.1l0.1,0.2
	c0.1,0.2,0,0.5-0.2,0.5c-0.1,0-0.1,0-0.2,0c-0.2,0-0.3-0.1-0.4-0.2c0-0.1,0-0.1-0.1-0.1c0,0,0-0.1,0-0.1c0,0,0,0,0-0.1l-0.1-0.1
	C54.8,31,50,28,44.8,28z M44.8,24.1L44.8,24.1c-0.2,0-0.4-0.2-0.4-0.4c0-0.2,0.2-0.4,0.4-0.4l0,0c5.6,0,10.9,2.6,14.4,7l0,0l0.1,0.1
	v0.1l0.1,0.1l0.1,0.1c0.1,0.2,0.1,0.5-0.1,0.6c-0.1,0.1-0.2,0.1-0.2,0.1c-0.1,0-0.3-0.1-0.3-0.2l-0.1-0.1c0,0,0,0,0-0.1l0,0
	l-0.1-0.1C55.3,26.5,50.2,24.1,44.8,24.1z M44.8,44.7c1.7,0.2,3.1-1,3.3-2.7c0.2-1.7-1-3.1-2.7-3.3c-0.2,0-0.4,0-0.6,0
	c-0.2,0-0.4-0.2-0.4-0.4c0-0.2,0.2-0.4,0.4-0.4c0,0,0,0,0,0l0,0c2.1,0,3.9,1.7,3.9,3.8c0,2.1-1.7,3.9-3.8,3.9c-1.8,0-3.4-1.3-3.8-3
	l0,0c0-0.1,0-0.1,0-0.2v-0.1c0,0,0-0.1,0-0.1V42c0-0.2,0.2-0.4,0.4-0.5s0.4,0.2,0.5,0.4c0,0,0,0.1,0,0.1v0.1c0,0,0,0,0,0.1v0.1
	C42.2,43.7,43.4,44.6,44.8,44.7L44.8,44.7z M39.6,33.1l-0.1,0.1h-0.1l-0.1,0.1l-0.1,0.1l0,0c-4.4,2.9-5.7,8.8-3,13.3
	c0.1,0.2,0,0.5-0.2,0.6c-0.1,0-0.1,0.1-0.2,0.1c-0.1,0-0.3-0.1-0.4-0.2c-2.8-4.9-1.4-11.2,3.3-14.4l0.1-0.1h0.1l0.1-0.1l0.1-0.1
	c0.2-0.1,0.4-0.1,0.6,0.1C39.8,32.8,39.8,33,39.6,33.1L39.6,33.1z M31.7,46.9c0.2-0.1,0.5,0,0.5,0.2c0,0,0,0,0,0l0.1,0.2v0.1
	c0,0,0,0,0,0.1c0,0.1,0,0.1,0.1,0.1c2.3,4.7,7.1,7.7,12.3,7.7l0,0c0.2,0,0.4,0.2,0.4,0.4s-0.2,0.4-0.4,0.4l0,0
	c-5.5-0.1-10.6-3.2-13-8.2l-0.1-0.2c0,0,0-0.1,0-0.1c0,0,0,0,0-0.1l-0.1-0.2C31.5,47.2,31.6,47,31.7,46.9z M39.1,58.7
	c0.1-0.2,0.3-0.3,0.5-0.3c0,0,0,0,0,0l0.2,0.1h0.1h0.1h0.2c5.2,1.4,10.7,0.4,15-2.7c0.2-0.1,0.4-0.1,0.6,0.1
	c0.1,0.2,0.1,0.4-0.1,0.6c-3.1,2.3-6.9,3.5-10.8,3.5c-1.7,0-3.3-0.2-4.9-0.7l0,0l-0.2,0h-0.1h-0.1l-0.2-0.1
	C39.2,59.1,39.1,58.9,39.1,58.7z M51.1,54.7L51.1,54.7l-0.1,0.1h-0.1h-0.1l-0.2,0.1c-0.1,0-0.1,0-0.2,0c-0.2,0-0.4-0.2-0.4-0.4
	c0-0.2,0.1-0.3,0.2-0.4l0.1-0.1c0,0,0.1,0,0.1,0h0.1l0.1-0.1c4.7-2.3,7.7-7.1,7.7-12.3c0-0.2,0.2-0.4,0.4-0.4c0,0,0,0,0,0
	c0.2,0,0.4,0.2,0.4,0.4c0,0,0,0,0,0l0,0C59.3,47.2,56.1,52.3,51.1,54.7z M59.2,51.8l0.1-0.1l0.1-0.1l0-0.1c0-0.1,0.1-0.1,0.1-0.1
	l0,0c3-4.5,3.7-10,2.1-15.1c-0.1-0.2,0.1-0.4,0.3-0.5c0.2-0.1,0.4,0,0.5,0.2c0,0,0,0,0,0c1.2,3.6,1.2,7.4,0.1,11
	c-0.5,1.7-1.3,3.4-2.3,4.8c0,0-0.1,0.1-0.1,0.1L60,52c0,0,0,0.1,0,0.1l-0.1,0.1c-0.1,0.1-0.2,0.2-0.3,0.2c-0.1,0-0.2,0-0.2-0.1
	C59.1,52.2,59.1,52,59.2,51.8z M38.3,20.4L38.3,20.4l0.2-0.1h0.1h0.1l0.2,0c0.2-0.1,0.4,0.1,0.5,0.3c0.1,0.2-0.1,0.4-0.3,0.5l-0.2,0
	h-0.1h-0.1l-0.2,0l0,0c-5.2,1.6-9.5,5.1-12.2,9.8c-0.1,0.1-0.2,0.2-0.4,0.2c-0.1,0-0.1,0-0.2-0.1c-0.2-0.1-0.3-0.4-0.2-0.6
	C28.4,25.7,32.9,22.1,38.3,20.4z M23.2,36.7L23.2,36.7l0-0.2v-0.1c0,0,0-0.1,0-0.1l0-0.2c0-0.2,0.2-0.4,0.5-0.4
	c0.2,0,0.4,0.2,0.4,0.5c0,0,0,0.1,0,0.1l0,0.2c0,0,0,0.1,0,0.1c0,0,0,0.1,0,0.1v0.2c-0.4,1.6-0.5,3.2-0.5,4.8c0,3.8,1,7.5,2.9,10.7
	c0.1,0.2,0,0.4-0.1,0.6c-0.1,0-0.1,0.1-0.2,0.1c-0.1,0-0.3-0.1-0.4-0.2C22.8,47.9,22,42.2,23.2,36.7z M26.4,42.3
	C26.4,42.2,26.4,42.2,26.4,42.3c0-0.1,0-0.1,0-0.2v-0.2c0-0.2,0.2-0.4,0.4-0.4c0.2,0,0.4,0.2,0.4,0.4v0.2c0,0,0,0.1,0,0.1
	c0,0,0,0.1,0,0.1v0.2l0,0c0.2,5.4,2.9,10.3,7.2,13.5c0.2,0.1,0.2,0.4,0.1,0.6c-0.1,0.1-0.2,0.2-0.3,0.2c-0.1,0-0.2,0-0.2-0.1
	c-4.6-3.3-7.4-8.5-7.6-14.1l0,0C26.4,42.4,26.4,42.3,26.4,42.3z M29.3,56.9c0.2-0.2,0.4-0.2,0.6,0c0,0,0,0,0,0L30,57
	c0,0,0,0,0.1,0.1c0,0,0.1,0,0.1,0.1l0.1,0.1l0,0C34.2,61,39.4,63,44.8,63l0,0c0.2,0,0.4,0.2,0.4,0.4c0,0.2-0.2,0.4-0.4,0.4l0,0
	c-5.6,0-11-2.1-15.1-6l0,0l-0.1-0.1c0,0-0.1,0-0.1-0.1c0,0-0.1,0-0.1-0.1l-0.1-0.1C29.2,57.4,29.1,57.1,29.3,56.9
	C29.3,57,29.3,56.9,29.3,56.9z M51.3,62.9L51.3,62.9l-0.2,0.1h-0.1H51l-0.2,0c0,0-0.1,0-0.1,0c-0.2,0-0.5-0.1-0.5-0.4
	c0-0.2,0.1-0.5,0.4-0.5h0.2h0.1h0.1h0.2l0,0c5.2-1.6,9.5-5.1,12.2-9.8c0.1-0.2,0.4-0.3,0.6-0.1c0,0,0,0,0,0c0.2,0.1,0.3,0.4,0.2,0.6
	C61.2,57.6,56.7,61.2,51.3,62.9z"/>
</svg>
