<svg id="Layer_1" data-name="Layer 1" xmlns="http://www.w3.org/2000/svg" viewBox="0 0 89.62 89.62"><defs><style>.cls-1{fill:#007bbf;}</style></defs><path class="cls-1" d="M90.22,66.71V57.09a.48.48,0,0,0-.48-.49H76.6a30.14,30.14,0,0,0,1.73-8.26h5.33a2.89,2.89,0,1,0,0-1H78.38c0-.37,0-.74,0-1.11a30,30,0,0,0-.8-7h6.5a.48.48,0,0,0,.49-.48V30.7a2.9,2.9,0,1,0-1,0v7.66H77.36A30.7,30.7,0,0,0,57.48,17.25V6.48h9.13a2.89,2.89,0,1,0,0-1H57a.47.47,0,0,0-.48.48V16.94a30.9,30.9,0,0,0-8.26-1.25V12.07a2.9,2.9,0,1,0-1,0v3.62a30.55,30.55,0,0,0-8.05,1.23V11.64a.49.49,0,0,0-.49-.49H30.6a2.9,2.9,0,1,0,0,1h7.66v5.1a30.73,30.73,0,0,0-20,21H6.39V29.13a2.9,2.9,0,1,0-1,0v9.62a.49.49,0,0,0,.48.48H18.06a30.21,30.21,0,0,0-.82,7c0,.41,0,.81,0,1.22H12a2.9,2.9,0,1,0,0,1h5.34a30.36,30.36,0,0,0,1.69,8H11.54a.48.48,0,0,0-.48.48v8.15a2.89,2.89,0,1,0,1,0V57.47h7.35a30.7,30.7,0,0,0,18.8,17.81V89.35H29a2.9,2.9,0,1,0,0,1h9.62a.48.48,0,0,0,.48-.49V75.59a30.51,30.51,0,0,0,8.26,1.25v6.92A2.88,2.88,0,0,0,45,86.61a2.9,2.9,0,1,0,3.38-2.85V76.84a30.55,30.55,0,0,0,8-1.22V84.2a.44.44,0,0,0,.09.27s0,0,.06.07a.48.48,0,0,0,.34.14H65a2.9,2.9,0,1,0,0-1H57.38v-8.4A30.74,30.74,0,0,0,76.24,57.57h13V66.7a2.92,2.92,0,1,0,1,0ZM69.37,33.82a.49.49,0,1,1,.84-.49,26.06,26.06,0,0,1,3.3,15.86A28.2,28.2,0,0,1,73,52.06h0l0,.19,0,.1s0,.07,0,.1l-.05.19a.49.49,0,0,1-.47.37h-.12a.48.48,0,0,1-.35-.59l0-.19a.32.32,0,0,1,0-.09.34.34,0,0,1,0-.1l0-.19h0a25.38,25.38,0,0,0,.62-5.58A24.85,24.85,0,0,0,69.37,33.82ZM30.94,46.27a17,17,0,0,1,9.57-15.22l.17-.08.1,0,.08-.05L41,30.8a.5.5,0,0,1,.64.25.48.48,0,0,1-.25.64l-.17.08-.09,0-.08,0-.16.08h0a16,16,0,0,0-9,14.35v0a.49.49,0,0,1-1,0v0ZM28.33,40a.49.49,0,0,1-.46.34l-.15,0a.49.49,0,0,1-.31-.61A21.62,21.62,0,0,1,40.3,26.18h0a1,1,0,0,1,.18-.07l.09,0,.09,0,.19-.06a.48.48,0,0,1,.62.29.49.49,0,0,1-.3.62L41,27l-.1,0-.09,0-.18.06h0A20.63,20.63,0,0,0,28.33,40ZM47.82,53.7a.48.48,0,0,1,.49.48.47.47,0,0,1-.47.48h0A8.38,8.38,0,0,1,41.28,41l.12-.15.07-.07.06-.08.13-.15a.49.49,0,0,1,.68,0,.48.48,0,0,1,0,.68l-.12.13-.06.06,0,.07a1.34,1.34,0,0,0-.11.14,7.33,7.33,0,0,0-1.64,4.65A7.44,7.44,0,0,0,47.82,53.7ZM65.44,27.36l.15.13.06.08.08.06.15.14a.48.48,0,0,1-.34.83.51.51,0,0,1-.34-.14l-.14-.13L65,28.25l-.08-.06-.14-.13a24.77,24.77,0,0,0-17-6.68h0a.48.48,0,1,1,0-1h0a25.76,25.76,0,0,1,17.62,6.93h0Zm-6,18.26a1.09,1.09,0,0,1,0-.18A11.68,11.68,0,0,0,47.82,34.63h0a.48.48,0,0,1-.48-.48.49.49,0,0,1,.48-.49h0A12.64,12.64,0,0,1,60.39,45.37h0a1.28,1.28,0,0,1,0,.19.33.33,0,0,1,0,.1.38.38,0,0,1,0,.1,1.34,1.34,0,0,1,0,.2.47.47,0,0,1-.47.49h0a.49.49,0,0,1-.49-.47v-.27S59.44,45.65,59.44,45.62ZM47.82,38.84h0a.49.49,0,0,1,0-1h0a8.41,8.41,0,0,1,8.4,8.4,8.52,8.52,0,0,1-.48,2.79,8.64,8.64,0,0,1-1.38,2.48l-.13.15s0,.05-.07.06a.16.16,0,0,1-.06.08c0,.06-.09.1-.13.15a.48.48,0,0,1-.35.16.47.47,0,0,1-.33-.14.48.48,0,0,1,0-.68l.12-.13.07-.06a.43.43,0,0,0,0-.07l.12-.13a7.43,7.43,0,0,0-5.79-12.09ZM57.91,52.07a.48.48,0,1,1,.83.49,12.6,12.6,0,0,1-13.74,6,12.37,12.37,0,0,1-2.68-.94l-.17-.09-.09-.06-.09,0-.17-.1a.48.48,0,0,1-.2-.65.49.49,0,0,1,.66-.19l.16.08.08,0,.08,0,.16.09h0a11.52,11.52,0,0,0,5.07,1.16A11.68,11.68,0,0,0,57.91,52.07ZM47.82,30.35h0a.48.48,0,1,1,0-1h0A17,17,0,0,1,63.05,39l.09.18,0,.1a.56.56,0,0,1,0,.08l.08.18a.49.49,0,0,1-.25.64.43.43,0,0,1-.19,0,.49.49,0,0,1-.45-.29c0-.06,0-.11-.07-.17a.32.32,0,0,1,0-.09.22.22,0,0,1-.05-.08l-.08-.17A16,16,0,0,0,47.82,30.35Zm0-4.56h0a.49.49,0,1,1,0-1h0a21.37,21.37,0,0,1,16.8,8.11h0l.13.15,0,.09.07.07.12.16a.49.49,0,0,1-.39.78.47.47,0,0,1-.38-.2l-.12-.15a.35.35,0,0,1,0-.08L64,33.69l-.12-.15A20.36,20.36,0,0,0,47.82,25.79Zm0,24a3.52,3.52,0,1,0,0-7,.5.5,0,0,1-.49-.48.48.48,0,0,1,.48-.49h0a4.49,4.49,0,1,1-4.38,5.44h0a1.55,1.55,0,0,0,0-.21v-.1a.43.43,0,0,1,0-.11l0-.21a.49.49,0,0,1,1-.07,1,1,0,0,0,0,.17v.08s0,0,0,.08l0,.16A3.52,3.52,0,0,0,47.82,49.78ZM41.74,36.34l-.15.1-.08,0-.07.06-.15.1h0A11.64,11.64,0,0,0,37.76,52.1a.49.49,0,0,1-.18.66.42.42,0,0,1-.24.07.49.49,0,0,1-.42-.24,12.62,12.62,0,0,1,3.82-16.75l.16-.11.09,0,.08-.07.17-.1a.48.48,0,1,1,.5.82ZM32.6,52.4a.48.48,0,0,1,.64.24l.08.18,0,.08a.22.22,0,0,0,0,.08c0,.06.05.11.07.17a16,16,0,0,0,14.35,9h0a.49.49,0,0,1,0,1h0A17,17,0,0,1,32.6,53.57l-.08-.18a.16.16,0,0,1,0-.09.26.26,0,0,1-.05-.09L32.36,53A.47.47,0,0,1,32.6,52.4Zm8.59,13.76a.48.48,0,0,1,.6-.32l.19.06.08,0,.1,0,.18,0a20.56,20.56,0,0,0,17.54-3.18.48.48,0,0,1,.57.78,21.28,21.28,0,0,1-12.63,4.11,21.68,21.68,0,0,1-5.73-.77h0l-.19-.05-.09,0h-.1l-.19-.07A.47.47,0,0,1,41.19,66.16Zm13.93-4.67h0l-.17.09-.1,0-.08,0-.18.08a.48.48,0,0,1-.2,0,.49.49,0,0,1-.19-.93l.17-.07a.16.16,0,0,1,.09,0l.08,0,.17-.08a16,16,0,0,0,9-14.35.48.48,0,0,1,.48-.49.47.47,0,0,1,.48.47v0A17,17,0,0,1,55.12,61.49Zm9.45-3.44.11-.15.06-.08.05-.08c0-.06.07-.11.1-.16h0A20.51,20.51,0,0,0,67.3,39.93a.49.49,0,0,1,.31-.61.47.47,0,0,1,.61.31,21.51,21.51,0,0,1,.14,12.83,21.3,21.3,0,0,1-2.66,5.65,1.63,1.63,0,0,0-.11.17l-.07.08a.41.41,0,0,1,0,.09l-.11.16a.49.49,0,0,1-.4.21.51.51,0,0,1-.28-.09A.5.5,0,0,1,64.57,58.05ZM40.21,21.56h0l.19-.06.1,0,.1,0,.19-.05a.48.48,0,1,1,.26.93l-.19.05-.09,0-.09,0-.19.05h0A24.87,24.87,0,0,0,26.25,33.86a.47.47,0,0,1-.42.24.53.53,0,0,1-.24-.06.49.49,0,0,1-.18-.66A25.79,25.79,0,0,1,40.21,21.56ZM22.62,40.5h0l.05-.2,0-.09s0-.07,0-.1l.05-.2a.49.49,0,1,1,.94.24l-.05.19a.32.32,0,0,1,0,.09.38.38,0,0,1,0,.1l0,.19a24.51,24.51,0,0,0-.63,5.54,24.88,24.88,0,0,0,3.35,12.48.49.49,0,0,1-.17.66.54.54,0,0,1-.25.06.48.48,0,0,1-.42-.24A26,26,0,0,1,22.62,40.5ZM26.39,47a.28.28,0,0,1,0-.09.44.44,0,0,1,0-.1V46.6a.49.49,0,0,1,1,0v.19a.34.34,0,0,1,0,.1s0,.06,0,.1v.18h0a20.37,20.37,0,0,0,8.45,15.68.49.49,0,0,1-.29.88.49.49,0,0,1-.28-.09A21.32,21.32,0,0,1,26.4,47.21h0A1.34,1.34,0,0,1,26.39,47Zm3.39,17.09a.48.48,0,0,1,.68,0l.14.13s0,0,.06.08a.16.16,0,0,1,.08.06l.14.13h0a24.82,24.82,0,0,0,16.94,6.66h0a.48.48,0,1,1,0,1h0A25.73,25.73,0,0,1,30.23,65.2h0l-.14-.14A.27.27,0,0,1,30,65a.21.21,0,0,1-.08-.06l-.14-.14A.48.48,0,0,1,29.78,64.09ZM55.42,71h0l-.19.06-.1,0-.1,0-.19.05a.3.3,0,0,1-.13,0,.48.48,0,0,1-.13-1l.19,0,.09,0,.09,0,.18,0h0A24.84,24.84,0,0,0,69.38,58.69a.48.48,0,0,1,.66-.17.49.49,0,0,1,.18.66A25.82,25.82,0,0,1,55.42,71Z" transform="translate(-3.01 -3.11)"/></svg>